<?xml version="1.0" standalone="no"?>
<!DOCTYPE svg PUBLIC "-//W3C//DTD SVG 20010904//EN"
 "http://www.w3.org/TR/2001/REC-SVG-20010904/DTD/svg10.dtd">
<svg version="1.0" xmlns="http://www.w3.org/2000/svg"
 width="300.000000pt" height="168.000000pt" viewBox="0 0 300.000000 168.000000"
 preserveAspectRatio="xMidYMid meet">
<metadata>
Created by potrace 1.16, written by Peter Selinger 2001-2019
</metadata>
<g transform="translate(0.000000,168.000000) scale(0.100000,-0.100000)"
fill="#000000" stroke="none">
<path d="M1897 1493 c-4 -7 -31 -19 -61 -27 -51 -15 -86 -40 -73 -53 11 -10
-13 -42 -43 -58 -17 -9 -30 -19 -30 -24 0 -4 24 -13 53 -20 66 -15 137 -49
137 -66 0 -7 -20 -52 -45 -99 -25 -48 -45 -91 -45 -96 0 -4 11 -11 25 -14 16
-4 25 -13 25 -27 0 -16 -4 -18 -18 -10 -9 5 -30 7 -46 4 -25 -5 -28 -3 -23 11
4 10 7 33 7 52 0 24 5 34 15 34 20 0 20 3 -17 55 -27 38 -32 55 -32 100 0 58
-5 63 -49 46 -19 -7 -39 -5 -79 11 -70 26 -158 21 -226 -15 -30 -15 -53 -22
-62 -17 -8 4 -30 11 -49 15 -32 7 -34 6 -27 -16 23 -77 25 -98 12 -150 -8 -29
-12 -68 -9 -86 4 -22 2 -33 -6 -33 -8 0 -10 8 -6 20 5 16 2 20 -15 20 -20 0
-22 3 -15 38 4 20 11 42 16 48 11 14 -50 130 -88 166 -83 78 -202 96 -306 45
-46 -23 -66 -41 -104 -95 -25 -37 -56 -77 -67 -90 l-20 -23 22 -6 c13 -3 25
-16 28 -32 3 -14 8 -34 10 -43 5 -15 -3 -17 -67 -15 -60 2 -77 -2 -97 -18 -82
-67 -112 -100 -123 -133 -6 -20 -16 -46 -22 -57 -6 -11 -11 -31 -12 -45 0 -14
-4 -35 -9 -47 -6 -20 -4 -23 18 -23 16 0 26 -6 26 -15 0 -11 -13 -15 -52 -15
-74 0 -142 -34 -204 -102 -44 -48 -53 -66 -68 -132 -11 -46 -16 -89 -12 -111
8 -39 9 -40 38 -24 17 9 24 6 50 -25 16 -20 51 -48 76 -64 41 -23 58 -27 127
-27 58 0 89 5 113 18 43 24 106 89 122 127 7 16 19 30 26 30 8 0 14 3 14 8 -1
14 -38 150 -44 161 -5 7 9 11 44 11 l52 0 -7 -33 c-4 -17 -15 -47 -26 -65 -16
-28 -17 -34 -4 -38 8 -4 15 -14 15 -23 0 -28 46 -115 76 -143 124 -116 343
-80 414 67 12 25 29 49 37 54 12 6 13 12 4 30 -10 17 -9 21 3 21 29 0 66 -20
66 -35 0 -30 38 -91 83 -132 50 -46 97 -63 172 -63 100 0 212 82 236 174 6 23
19 55 30 72 17 28 17 31 2 47 -16 16 -15 17 15 17 18 0 32 -2 32 -4 0 -2 -9
-26 -20 -52 -23 -53 -20 -74 10 -74 14 0 26 -13 41 -45 53 -112 198 -169 323
-126 50 17 112 74 138 125 11 23 29 51 40 63 14 15 18 28 13 43 -5 16 -3 21 6
18 7 -2 20 -31 29 -64 32 -119 111 -184 234 -192 59 -4 79 0 117 17 85 40 148
124 149 199 0 17 4 32 9 32 21 0 20 34 -1 55 -13 12 -36 43 -51 69 -35 56 -95
94 -177 109 -69 13 -82 32 -15 21 29 -4 45 -3 45 4 0 6 -21 14 -46 18 -25 3
-48 13 -51 20 -3 7 5 35 18 60 l22 47 -24 19 c-13 11 -59 36 -102 57 -42 21
-74 41 -70 45 12 12 -20 26 -34 15 -13 -12 -103 -2 -103 11 0 5 7 16 16 24 14
14 12 23 -12 96 -49 144 -133 207 -263 197 -36 -3 -77 -8 -89 -12 l-24 -8 26
51 c14 28 26 53 26 55 0 2 -18 9 -41 16 -22 7 -42 20 -45 29 -14 45 -21 55
-27 45z m-187 -227 c0 -33 -10 -56 -24 -56 -7 0 -52 -20 -101 -45 -98 -51
-105 -51 -225 -10 -66 23 -81 38 -95 97 -6 22 -4 26 12 22 10 -3 36 -18 58
-35 152 -111 168 -113 252 -36 61 56 102 87 115 87 5 0 8 -11 8 -24z m423 3
c-5 -19 -3 -20 14 -11 22 12 43 -1 43 -25 0 -7 4 -13 8 -13 17 0 21 13 11 32
-10 18 -8 18 20 -3 18 -13 29 -29 27 -36 -3 -7 0 -12 6 -10 6 1 19 -12 30 -30
22 -36 31 -120 13 -120 -7 0 -11 17 -10 43 0 24 -2 41 -5 39 -3 -2 -18 19 -33
46 -31 54 -41 62 -32 26 4 -15 1 -28 -9 -36 -13 -11 -16 -11 -16 0 0 12 -2 12
-9 0 -5 -7 -13 -11 -19 -7 -6 3 -13 0 -15 -6 -3 -7 -6 -2 -6 12 -1 14 6 37 13
52 8 15 11 30 7 33 -8 5 -31 -60 -31 -89 0 -18 -15 -21 -26 -5 -4 8 -9 7 -15
-2 -5 -9 -8 14 -7 56 1 61 2 65 8 30 6 -36 7 -37 9 -9 0 16 6 35 13 42 16 16
17 15 11 -9z m-1130 -42 c22 -3 31 1 38 17 7 16 9 13 5 -16 l-5 -37 35 5 c33
4 35 2 28 -18 -3 -13 -13 -30 -21 -39 -11 -13 -11 -18 -2 -21 8 -3 10 -11 5
-24 -6 -12 -10 -15 -13 -6 -3 6 -9 10 -14 6 -5 -3 -9 2 -9 10 0 10 -6 13 -15
10 -18 -7 -19 -23 -1 -47 12 -16 17 -16 34 -6 11 7 25 23 31 36 14 31 81 34
81 3 0 -27 -35 -60 -64 -60 -42 0 -57 -10 -46 -31 11 -19 17 -16 -110 -49 -71
-19 -107 -70 -59 -85 27 -9 44 -47 32 -70 -9 -15 -12 -14 -30 11 -20 29 -48
98 -48 122 0 7 -10 18 -21 25 -11 7 -44 26 -72 42 -71 41 -79 68 -40 126 17
24 39 63 50 86 22 49 38 63 38 34 0 -17 6 -21 30 -21 24 0 30 4 31 23 l0 22
11 -22 c8 -17 20 -23 43 -23 29 0 32 3 29 28 l-4 27 12 -27 c8 -18 21 -28 41
-31z m679 -92 c10 -38 16 -45 36 -45 23 0 24 -2 18 -42 -9 -53 -9 -54 -59 -76
-40 -18 -117 -91 -117 -112 0 -6 -26 -10 -58 -10 -95 0 -124 38 -86 112 16 30
15 32 -7 49 -13 10 -34 19 -46 19 -49 0 -53 73 -6 91 50 19 97 -39 58 -71 -8
-7 -15 -17 -15 -23 0 -22 43 32 44 55 1 20 7 24 51 28 32 4 68 17 99 38 28 18
56 32 63 32 7 0 18 -20 25 -45z m318 9 c43 -16 166 -18 209 -3 37 13 46 7 57
-35 6 -26 5 -28 -12 -21 -46 20 -84 18 -104 -5 -11 -13 -20 -27 -20 -31 0 -19
20 -59 30 -59 6 0 3 11 -6 25 -15 23 -15 27 0 50 19 29 66 34 86 10 7 -8 16
-12 22 -9 5 3 2 -10 -6 -30 -8 -20 -11 -36 -7 -36 5 0 11 7 15 15 5 15 56 22
56 8 -1 -23 -21 -35 -56 -33 -72 5 -83 2 -77 -20 6 -22 -24 -110 -37 -110 -4
0 -27 7 -50 15 -49 17 -60 18 -60 6 0 -5 14 -14 32 -20 39 -14 31 -25 -12 -16
-18 4 -48 26 -73 52 -23 25 -61 56 -85 70 -28 17 -42 31 -39 42 2 9 8 15 14
14 6 -1 13 15 16 35 3 20 13 54 22 75 12 30 20 37 33 32 9 -4 33 -14 52 -21z
m-1259 -145 c19 -9 41 -25 48 -33 12 -14 10 -16 -10 -16 -36 0 -237 -55 -309
-84 -35 -14 -65 -26 -66 -26 -2 0 2 15 8 33 44 127 203 189 329 126z m946 -75
c15 3 20 0 18 -12 -3 -23 4 -34 18 -25 7 4 64 8 127 9 65 0 102 -2 85 -6 l-30
-8 30 -2 c27 -1 28 -2 10 -11 -17 -8 -16 -9 8 -6 20 3 27 0 27 -13 0 -10 7
-20 14 -23 19 -7 30 -67 22 -112 -5 -23 -11 -32 -20 -29 -8 3 -17 -3 -20 -14
-4 -10 -18 -25 -32 -33 -14 -7 -40 -31 -57 -54 -41 -53 -45 -55 -93 -55 -37 0
-44 4 -68 41 -15 22 -47 54 -72 72 l-45 31 38 13 c21 8 44 21 51 30 6 9 12 14
12 10 0 -16 41 15 52 38 9 19 7 30 -6 50 -16 24 -30 26 -106 15 -3 0 2 -4 9
-9 9 -6 22 -6 33 0 44 23 84 -27 51 -63 -21 -23 -62 -26 -43 -3 7 8 15 13 19
11 4 -3 7 4 7 15 0 18 -28 25 -73 20 -9 -1 -11 26 -3 37 2 1 3 6 4 11 0 5 5
13 10 18 5 4 6 3 2 -4 -3 -6 -2 -14 3 -17 5 -3 11 0 14 7 3 8 -3 19 -13 25
-14 8 -20 8 -22 0 -2 -6 -12 -12 -21 -14 -9 -1 -15 2 -11 7 3 5 10 7 15 4 12
-8 11 6 -1 25 -12 19 8 44 25 30 6 -5 21 -8 32 -6z m-895 -23 c14 -16 31 -51
38 -77 7 -27 17 -54 22 -60 16 -22 -15 -74 -77 -129 -64 -56 -64 -56 -94 -40
-37 19 -41 19 -41 0 0 -24 -63 -19 -86 6 -10 12 -42 37 -71 56 -66 42 -76 60
-66 120 l8 48 75 28 c61 24 235 75 262 77 3 0 17 -13 30 -29z m538 -61 c10
-14 21 -38 25 -55 6 -28 5 -29 -8 -10 -9 11 -13 24 -10 29 4 5 1 6 -6 1 -9 -5
-10 -10 -2 -18 22 -22 12 -65 -21 -91 -18 -14 -28 -26 -21 -26 17 0 63 48 63
65 0 21 9 19 36 -11 32 -34 30 -49 -10 -74 -19 -11 -48 -36 -65 -55 -16 -19
-32 -31 -35 -27 -2 4 -28 7 -58 6 -37 -2 -54 -6 -56 -17 -2 -11 6 -13 45 -6
45 7 75 -2 60 -17 -4 -4 -29 -9 -56 -12 -48 -4 -50 -4 -76 36 -15 22 -44 53
-66 68 -38 26 -50 44 -29 44 6 0 10 -4 10 -10 0 -9 10 -7 63 12 39 15 53 74
23 103 -35 35 -102 24 -126 -21 -8 -13 -17 -24 -22 -24 -5 0 -7 -4 -4 -9 8
-12 -3 -41 -15 -41 -17 0 -9 65 14 104 l22 40 125 18 c69 9 132 19 140 22 27
7 43 1 60 -24z m1027 -61 c65 -17 135 -34 156 -39 44 -9 42 -7 51 -42 4 -18 2
-28 -4 -28 -6 0 -8 5 -5 11 4 6 -2 5 -13 -2 -12 -7 -19 -16 -16 -20 2 -4 -10
-17 -27 -30 -17 -12 -46 -45 -64 -73 -42 -66 -63 -85 -75 -67 -13 22 28 81 57
81 15 0 23 5 20 13 -2 6 -14 11 -25 9 -14 -2 -22 2 -22 11 0 18 -39 34 -105
42 -63 8 -145 34 -145 46 0 5 14 34 31 64 20 36 37 55 50 55 10 0 71 -14 136
-31z m-1439 -132 c-9 -7 -25 -18 -35 -25 -10 -7 -2 -5 17 4 19 9 38 21 41 25
3 5 14 1 25 -9 10 -9 30 -17 42 -16 39 2 104 -55 124 -110 l18 -47 -42 5 c-66
7 -81 15 -73 40 12 37 17 96 9 96 -5 0 -9 -18 -9 -40 -1 -58 -21 -73 -80 -64
-26 3 -56 15 -65 24 -13 13 -21 15 -29 7 -14 -14 -94 9 -85 25 4 6 3 8 -4 5
-5 -4 -17 -4 -26 -1 -13 5 -14 9 -4 21 25 30 116 70 163 71 26 1 28 0 13 -11z
m1438 -38 c16 -13 18 -37 5 -57 -7 -11 -16 -11 -55 2 -59 20 -247 21 -329 2
-33 -8 -55 -10 -50 -6 13 13 172 60 233 70 68 11 177 5 196 -11z m343 -73 c11
-13 27 -17 63 -15 43 3 55 -2 93 -32 42 -32 44 -36 38 -74 -27 -189 -262 -270
-398 -138 -38 37 -74 103 -75 137 0 31 53 115 75 118 13 2 22 13 26 33 l7 30
1 -34 c1 -33 1 -33 39 -27 95 17 92 15 93 54 l1 37 12 -36 c6 -20 17 -44 25
-53z m-2328 15 c35 17 44 18 75 7 28 -10 39 -10 55 1 12 7 24 9 27 6 4 -4 9
-44 10 -90 4 -73 6 -84 24 -88 20 -6 20 -6 -3 -48 -30 -52 -78 -93 -128 -108
-159 -47 -301 55 -301 215 0 63 9 84 36 84 16 0 24 6 24 17 0 15 1 15 13 -1
11 -15 19 -17 43 -9 24 8 28 14 26 38 l-4 28 32 -36 32 -37 39 21z m1759 -17
c6 -14 15 -22 20 -19 8 5 7 11 -1 21 -19 23 -6 26 64 19 65 -7 65 -7 72 -43 4
-20 16 -53 26 -75 17 -31 18 -44 10 -70 -29 -88 -131 -157 -231 -157 -89 1
-159 41 -209 124 l-24 39 24 69 c13 38 28 73 34 78 13 10 108 30 144 30 20 0
31 -7 39 -25 6 -14 16 -25 22 -25 15 0 12 20 -5 26 -8 4 -15 12 -15 20 0 23
20 16 30 -12z m-1349 -14 c19 -10 18 -12 -5 -35 -21 -21 -23 -29 -16 -56 11
-36 8 -33 37 -48 15 -7 24 -8 28 -1 4 6 11 8 16 5 5 -4 9 -1 9 5 0 6 4 9 9 6
13 -8 32 43 25 70 -4 15 -2 24 5 24 16 0 101 -22 101 -25 0 -15 -14 -34 -21
-29 -18 11 13 -52 33 -68 17 -12 28 -14 47 -6 43 16 80 58 51 58 -5 0 -10 -5
-10 -11 0 -31 -65 -50 -88 -27 -17 17 -15 53 3 68 21 18 115 -5 115 -28 0 -10
7 -25 15 -36 16 -22 5 -50 -41 -105 -107 -128 -326 -92 -395 65 -20 44 -20 45
-1 72 11 15 25 46 32 70 14 44 20 48 51 32z m938 -38 c28 -35 29 -41 20 -81
-23 -105 -122 -184 -229 -184 -105 0 -195 65 -224 163 -13 41 -12 48 7 83 17
31 26 37 53 37 18 0 36 -5 39 -10 3 -6 16 -8 28 -6 54 11 211 16 197 6 -11 -7
-7 -10 21 -10 19 0 40 -5 45 -10 7 -7 11 -6 11 5 0 10 -10 15 -29 15 -45 0
-32 27 14 29 9 1 30 -16 47 -37z"/>
</g>
</svg>
